<svg width="38" height="34" viewBox="0 0 38 34" fill="none" xmlns="http://www.w3.org/2000/svg">
<mask id="mask0_718_1317" style="mask-type:alpha" maskUnits="userSpaceOnUse" x="0" y="0" width="38" height="34">
<rect x="0.454529" width="37.0909" height="34" fill="#D9D9D9"/>
</mask>
<g mask="url(#mask0_718_1317)">
<path d="M6.63654 26.9139V24.0806H9.72744V14.1639C9.72744 12.2042 10.3714 10.4629 11.6593 8.93994C12.9471 7.41703 14.6214 6.41946 16.682 5.94723V4.95557C16.682 4.36529 16.9074 3.86355 17.3581 3.45036C17.8089 3.03716 18.3562 2.83057 19.0002 2.83057C19.6441 2.83057 20.1915 3.03716 20.6422 3.45036C21.093 3.86355 21.3183 4.36529 21.3183 4.95557V5.94723C23.379 6.41946 25.0532 7.41703 26.3411 8.93994C27.6289 10.4629 28.2729 12.2042 28.2729 14.1639V24.0806H31.3638V26.9139H6.63654ZM19.0002 31.1639C18.1502 31.1639 17.4225 30.8865 16.8172 30.3316C16.2119 29.7768 15.9093 29.1097 15.9093 28.3306H22.0911C22.0911 29.1097 21.7884 29.7768 21.1831 30.3316C20.5778 30.8865 19.8502 31.1639 19.0002 31.1639ZM12.8184 24.0806H25.182V14.1639C25.182 12.6056 24.5767 11.2715 23.3661 10.1618C22.1555 9.0521 20.7002 8.49724 19.0002 8.49724C17.3002 8.49724 15.8449 9.0521 14.6343 10.1618C13.4237 11.2715 12.8184 12.6056 12.8184 14.1639V24.0806Z" fill="#2F80ED"/>
</g>
</svg>
